<?xml version="1.0" encoding="UTF-8" ?>
<!DOCTYPE svg PUBLIC "-//W3C//DTD SVG 1.1//EN" "http://www.w3.org/Graphics/SVG/1.1/DTD/svg11.dtd">
<svg width="500pt" height="500pt" viewBox="0 0 500 500" version="1.1" xmlns="http://www.w3.org/2000/svg">
<g id="#ffffffff">
<path fill="#ffffff" opacity="1.00" d=" M 158.18 142.14 C 161.25 140.78 164.73 141.12 168.01 140.99 C 195.78 141.12 223.57 140.77 251.34 141.17 C 251.21 141.85 250.95 143.21 250.82 143.89 C 250.84 144.69 250.86 146.30 250.88 147.11 C 251.30 149.35 251.30 151.65 250.86 153.90 C 250.87 154.70 250.87 156.30 250.88 157.10 C 251.26 159.54 251.19 162.02 251.21 164.48 C 250.70 164.66 249.67 165.02 249.15 165.20 C 235.11 164.80 221.01 165.71 207.00 164.82 C 193.28 165.85 179.39 164.58 165.65 165.44 C 165.79 166.30 166.05 168.01 166.18 168.87 C 166.11 176.64 166.26 184.41 166.13 192.18 C 165.66 197.11 166.84 202.11 165.80 207.00 C 166.47 215.59 166.39 224.40 165.80 232.99 C 166.44 239.59 166.43 246.40 165.80 253.00 C 166.44 261.93 166.42 271.06 165.81 280.00 C 166.66 287.93 165.95 295.98 166.18 303.96 C 165.97 309.64 166.65 315.39 165.80 321.03 C 166.30 322.34 166.30 323.65 165.80 324.97 C 166.47 328.01 166.35 331.18 165.68 334.21 C 166.23 334.48 167.34 335.03 167.90 335.30 C 170.83 334.42 173.93 334.93 176.94 334.82 C 180.29 334.94 183.71 334.44 187.01 335.21 C 188.96 334.62 191.04 334.61 192.99 335.22 C 195.63 334.50 198.37 334.89 201.07 334.84 C 214.70 334.77 228.34 334.86 241.97 334.79 C 243.33 334.74 244.67 334.88 246.00 335.21 C 249.60 334.56 253.39 334.57 257.00 335.21 C 262.26 334.56 267.73 334.57 273.00 335.20 C 277.68 334.64 282.61 334.39 287.24 335.36 L 287.98 334.31 L 289.00 335.62 L 290.02 334.31 L 290.76 335.36 C 294.40 334.41 298.30 334.67 302.00 335.18 C 304.30 334.64 306.70 334.60 309.00 335.20 C 311.61 334.62 314.38 334.55 317.00 335.22 C 320.93 334.54 325.06 334.59 329.00 335.20 C 331.38 334.66 333.83 334.80 336.26 334.67 C 335.52 325.16 335.93 315.54 335.82 305.97 C 335.95 302.65 335.42 299.26 336.22 296.00 C 335.47 293.02 335.88 289.91 335.87 286.88 C 336.20 285.30 336.20 283.69 335.87 282.12 C 335.77 280.06 335.66 277.98 336.22 275.97 C 335.69 274.66 335.68 273.34 336.20 272.03 C 335.43 268.40 335.87 264.66 336.05 261.00 C 335.75 257.46 335.82 253.91 335.77 250.37 C 338.85 249.87 341.98 250.24 345.09 250.13 C 346.42 249.94 347.75 249.85 349.10 249.84 C 352.52 250.25 356.15 250.65 359.48 249.52 C 359.80 250.64 359.98 251.79 360.01 252.96 C 359.98 280.30 360.02 307.65 359.99 334.99 C 359.86 337.62 359.98 340.41 358.81 342.84 C 358.28 344.27 357.72 345.68 357.20 347.11 C 356.83 347.54 356.08 348.41 355.70 348.84 C 352.89 352.98 348.70 356.37 343.85 357.79 C 341.12 359.11 337.99 358.87 335.05 359.00 C 279.05 359.00 223.04 359.00 167.04 359.00 C 164.07 358.86 160.90 359.13 158.15 357.78 C 153.34 356.30 149.11 353.00 146.30 348.85 C 145.92 348.42 145.17 347.56 144.79 347.13 C 144.27 345.67 143.69 344.25 143.15 342.81 C 141.90 340.06 142.11 336.95 142.00 334.02 C 142.00 278.03 142.00 222.05 142.00 166.07 C 142.10 163.08 141.92 159.95 143.11 157.15 C 143.45 156.05 143.90 155.01 144.49 154.03 C 144.52 153.50 144.58 152.43 144.61 151.90 L 144.89 153.39 C 146.69 149.16 150.63 146.51 153.94 143.55 C 154.21 143.57 154.76 143.61 155.04 143.63 C 155.94 142.86 156.99 142.36 158.18 142.14 Z" />
<path fill="#ffffff" opacity="1.00" d=" M 275.36 141.01 C 303.57 140.99 331.78 141.00 360.00 141.00 C 360.00 169.21 360.01 197.43 360.00 225.64 C 351.93 225.58 343.86 225.75 335.80 225.55 C 335.87 222.70 335.53 219.80 336.20 217.00 C 335.42 213.38 335.96 209.65 335.82 205.98 C 335.95 202.32 335.43 198.61 336.19 195.00 C 335.57 191.68 335.60 188.20 336.22 184.88 C 335.86 183.94 335.50 183.00 335.15 182.07 C 331.07 188.14 324.99 192.61 320.10 198.04 C 319.08 199.05 318.07 200.06 317.06 201.07 C 316.06 202.06 315.05 203.06 314.06 204.07 C 313.06 205.06 312.06 206.06 311.07 207.07 C 310.06 208.06 309.06 209.06 308.07 210.07 C 307.06 211.06 306.05 212.06 305.07 213.07 C 296.39 221.73 287.72 230.39 279.08 239.07 C 278.07 240.06 277.06 241.06 276.07 242.07 C 275.06 243.07 274.06 244.06 273.07 245.07 C 272.06 246.06 271.06 247.06 270.07 248.07 C 269.06 249.06 268.06 250.06 267.06 251.07 C 266.06 252.06 265.06 253.06 264.07 254.07 C 263.05 255.06 262.05 256.06 261.06 257.07 C 251.39 266.73 241.73 276.38 232.08 286.06 C 231.07 287.06 230.06 288.06 229.07 289.07 C 227.06 291.06 225.05 293.06 223.07 295.07 C 222.06 296.07 221.05 297.06 220.03 298.05 C 218.86 299.18 217.76 300.39 216.94 301.80 C 215.00 299.82 213.02 297.90 211.08 295.92 C 210.07 294.93 209.06 293.93 208.07 292.92 C 207.07 291.93 206.07 290.93 205.08 289.92 C 203.07 287.98 201.16 285.93 199.14 284.00 C 201.32 283.00 202.79 281.08 204.46 279.45 C 230.27 253.61 256.12 227.82 281.92 201.96 C 293.30 190.65 304.62 179.27 315.97 167.93 C 316.85 167.02 317.95 166.37 319.05 165.76 C 317.11 165.27 315.12 164.40 313.13 165.14 C 308.42 165.04 303.66 165.58 299.00 164.82 C 295.71 165.39 292.28 165.43 288.99 164.80 C 287.03 165.37 284.96 165.34 283.00 164.81 C 280.45 165.50 277.79 165.25 275.24 164.70 C 275.49 156.80 275.30 148.90 275.36 141.01 Z" />
</g>
</svg>
